{"title":"Gun Woman 2013 DVD9rip Klam","uid":10466614,"size":1681380493,"categoryP":"video","categoryS":"movies","magnet":"?xt=urn:btih:b47dbb760660ad38f7e95fe5622d2914fae2ec1f&amp;dn=Gun+Woman+2013+DVD9rip+Klam&amp;tr=udp%3A%2F%2Ftracker.openbittorrent.com%3A80&amp;tr=udp%3A%2F%2Fopen.demonii.com%3A1337&amp;tr=udp%3A%2F%2Ftracker.coppersurfer.tk%3A6969&amp;tr=udp%3A%2F%2Fexodus.desync.com%3A6969","seeders":1,"leechers":0,"uploader":"Klambake","files":-1,"time":1404206546,"description":"With: Asami, Kairi Narita and Noriaki Kamata\n\nEen Japanse arts zweert wraak op een gestoorde, sadistische moordenaar nadat de man zijn liefhebbende vrouw vermoordt. De moordenaar is tevens een miljardair die extreem beveiligd is, maar de arts bedenkt een perfect plan wanneer hij een jonge Japanse vrouw in een dodelijke huurmoordenaar verandert. Zijn enige kans op wraak zal plaatsvinden in een ondergrondse faciliteit waar de moordenaar heen gaat om zij seksuele behoeften te vervullen. Op de nacht voor de executie verandert de arts de vrouw in Gun Woman.\n\nA brilliant doctor on a quest for revenge buys a young woman and trains her to be the ultimate assassin, implanting gun parts in her body that she must later assemble and use to kill her target before she bleeds to death.\n &lt;a href=&quot;\nhttp://www.imdb.com/title/tt3141912&quot; rel=&quot;nofollow&quot; target=&quot;_NEW&quot;&gt;\nhttp://www.imdb.com/title/tt3141912&lt;/a&gt;\t\n\n--------------------- Dutch Friends 4ever ---------------------\n---------------------------------------------------------------\n- Bezoek ook eens mijn vrienden op: &lt;a href=&quot; http://www.Film-Test.nl&quot; rel=&quot;nofollow&quot; target=&quot;_NEW&quot;&gt; http://www.Film-Test.nl&lt;/a&gt; --\n----- voor mijn Nederlandse Sync. ondertitels ---- en meer ----\n------- http://www.Film-Test.nl ---- Over Films en meer -------\n---------------------------------------------------------------\n &lt;a href=&quot;\nhttp://i.imgur.com/zJACNnK.jpg&quot; rel=&quot;nofollow&quot; target=&quot;_NEW&quot;&gt;\nhttp://i.imgur.com/zJACNnK.jpg&lt;/a&gt; &lt;a href=&quot;\nhttp://i.imgur.com/0qC3z9f.jpg&quot; rel=&quot;nofollow&quot; target=&quot;_NEW&quot;&gt;\nhttp://i.imgur.com/0qC3z9f.jpg&lt;/a&gt; &lt;a href=&quot;\nhttp://i.imgur.com/6edZP1K.jpg&quot; rel=&quot;nofollow&quot; target=&quot;_NEW&quot;&gt;\nhttp://i.imgur.com/6edZP1K.jpg&lt;/a&gt;\n\nGeneral:\n\nComplete name                            : Gun WomanGun Woman.avi\nFormat                                   : AVI\nFormat/Info                              : Audio Video Interleave\nFile size                                : 1.56 GiB\nDuration                                 : 1h 22mn\nOverall bit rate                         : 2 713 Kbps\n\nVideo:\n\nFormat                                   : MPEG-4 Visual\nFormat profile                           : Simple@L3\nFormat settings, BVOP                    : No\nFormat settings, QPel                    : No\nFormat settings, GMC                     : No warppoints\nFormat settings, Matrix                  : Default (H.263)\nCodec ID                                 : XVID\nCodec ID/Hint                            : XviD\nDuration                                 : 1h 22mn\nBit rate                                 : 2 254 Kbps\nWidth                                    : 704 pixels\nHeight                                   : 396 pixels\nDisplay aspect ratio                     : 16:9\nFrame rate                               : 25.000 fps\nColor space                              : YUV\nChroma subsampling                       : 4:2:0\nBit depth                                : 8 bits\nScan type                                : Progressive\nCompression mode                         : Lossy\nBits/(Pixel*Frame)                       : 0.323\nStream size                              : 1.30 GiB (83%)\nWriting library                          : XviD 1.1.2 (UTC 2006-11-01)\n\nAudio:\n\nFormat                                   : AC-3\nFormat/Info                              : Audio Coding 3\nMode extension                           : CM (complete main)\nFormat settings, Endianness              : Big\nCodec ID                                 : 2000\nDuration                                 : 1h 22mn\nSource duration                          : 1h 22mn\nBit rate mode                            : Constant\nBit rate                                 : 448 Kbps\nChannel(s)                               : 6 channels\nChannel positions                        : Front: L C R, Side: L R, LFE\nSampling rate                            : 48.0 KHz\nBit depth                                : 16 bits\nCompression mode                         : Lossy\nStream size                              : 264 MiB (17%)\nAlignment                                : Aligned on interleaves\nInterleave, duration                     : 32 ms (0.80 video frame)\nInterleave, preload duration             : 512 ms\n\n\n\n","torrent":{"xt":"urn:btih:b47dbb760660ad38f7e95fe5622d2914fae2ec1f","amp;dn":"Gun+Woman+2013+DVD9rip+Klam","amp;tr":["udp%3A%2F%2Ftracker.openbittorrent.com%3A80","udp%3A%2F%2Fopen.demonii.com%3A1337","udp%3A%2F%2Ftracker.coppersurfer.tk%3A6969","udp%3A%2F%2Fexodus.desync.com%3A6969"],"infoHash":"b47dbb760660ad38f7e95fe5622d2914fae2ec1f","infoHashBuffer":{"type":"Buffer","data":[180,125,187,118,6,96,173,56,247,233,95,229,98,45,41,20,250,226,236,31]},"announce":[],"urlList":[]}}